<?xml version="1.0" encoding="utf-8" standalone="yes"?>
<!DOCTYPE svg PUBLIC "-//W3C//DTD SVG 1.1//EN" "http://www.w3.org/Graphics/SVG/1.1/DTD/svg11.dtd">
<svg width="720" height="397" viewBox="0 0 720 397" style="fill:none;stroke:none;fill-rule:evenodd;clip-rule:evenodd;stroke-linecap:round;stroke-linejoin:round;stroke-miterlimit:1.5;" version="1.1" xmlns="http://www.w3.org/2000/svg" xmlns:xlink="http://www.w3.org/1999/xlink"><style id="fontImports">@import url("https://fonts.googleapis.com/css2?family=Roboto:wght@400;700&amp;display=block");</style><rect id="" x="0" y="0" width="720" height="397" style="fill: #2c2c2c;"></rect><g id="items" style="isolation: isolate"><g id="blend" style="mix-blend-mode:screen"><g id="g-root-ro_1lua71hyga2h0-fill" data-item-order="-33264" data-item-id="ro_1lua71hyga2h0" data-item-class="Shape Stroke Fill" data-item-index="none" data-renderer-id="0" transform="translate(278, 15)"><g id="ro_1lua71hyga2h0-fill" stroke="none" fill="#505050"><g><path d="M 34 10L 154 10C 154 10 178 10 178 34L 178 184C 178 184 178 208 154 208L 34 208C 34 208 10 208 10 184L 10 34C 10 34 10 10 34 10"></path></g></g></g><g id="g-root-ro_1q9h82tygcwee-fill" data-item-order="-9720" data-item-id="ro_1q9h82tygcwee" data-item-class="Shape Stroke Fill" data-item-index="none" data-renderer-id="0" transform="translate(272, 249)"><g id="ro_1q9h82tygcwee-fill" stroke="none" fill="#5a3f27"><g><path d="M 22 10L 178 10C 178 10 190 10 190 22L 190 52C 190 52 190 64 178 64L 22 64C 22 64 10 64 10 52L 10 22C 10 22 10 10 22 10"></path></g></g></g><g id="g-root-ro_1d1rk85ygbhu0-fill" data-item-order="-7776" data-item-id="ro_1d1rk85ygbhu0" data-item-class="Shape Stroke Fill" data-item-index="none" data-renderer-id="0" transform="translate(494, 3)"><g id="ro_1d1rk85ygbhu0-fill" stroke="none" fill="#2b503e"><g><path d="M 22 10L 142 10C 142 10 154 10 154 22L 154 52C 154 52 154 64 142 64L 22 64C 22 64 10 64 10 52L 10 22C 10 22 10 10 22 10"></path></g></g></g><g id="g-root-ro_1lvj57pyge9ky-fill" data-item-order="-7128" data-item-id="ro_1lvj57pyge9ky" data-item-class="Shape Stroke Fill" data-item-index="none" data-renderer-id="0" transform="translate(98, 3)"><g id="ro_1lvj57pyge9ky-fill" stroke="none" fill="#293f64"><g><path d="M 22 10L 130 10C 130 10 142 10 142 22L 142 52C 142 52 142 64 130 64L 22 64C 22 64 10 64 10 52L 10 22C 10 22 10 10 22 10"></path></g></g></g><g id="g-root-lock_1usf3mtygbimn-fill" data-item-order="0" data-item-id="lock_1usf3mtygbimn" data-item-class="Icon Stroke" data-item-index="none" data-renderer-id="0" transform="translate(506, 15)"></g><g id="g-root-cu_hxs36tygeb5v-fill" data-item-order="0" data-item-id="cu_hxs36tygeb5v" data-item-class="Curve Stroke ColorFillBlack ColorStrokeBlack" data-item-index="none" data-renderer-id="0" transform="translate(230, 30)"></g><g id="g-root-cu_meujhhygecjq-fill" data-item-order="0" data-item-id="cu_meujhhygecjq" data-item-class="Curve Stroke ColorFillBlack ColorStrokeBlack" data-item-index="none" data-renderer-id="0" transform="translate(446, 30)"></g><g id="g-root-tx_services_92rk11ygbh8u-fill" data-item-order="0" data-item-id="tx_services_92rk11ygbh8u" data-item-class="Label Stroke" data-item-index="none" data-renderer-id="0" transform="translate(542, 18)"><g id="tx_services_92rk11ygbh8u-fill" stroke="none" fill="#44E095"><g><text style="font: 20px Roboto, sans-serif; white-space: pre;"><tspan x="14.34" y="34" dominant-baseline="ideographic">Services</tspan></text></g></g></g><g id="g-root-1_dfgopxyga2o3-fill" data-item-order="0" data-item-id="1_dfgopxyga2o3" data-item-class="Icon Stroke" data-item-index="none" data-renderer-id="0" transform="translate(338, 39)"></g><g id="g-root-tx_requesth_1cy0pphygcxzb-fill" data-item-order="0" data-item-id="tx_requesth_1cy0pphygcxzb" data-item-class="Label Stroke" data-item-index="none" data-renderer-id="0" transform="translate(14, 69)"><g id="tx_requesth_1cy0pphygcxzb-fill" stroke="none" fill="#A3A3A3"><g><text style="font: 20px Roboto, sans-serif; white-space: pre;"><tspan x="15.44" y="34" dominant-baseline="ideographic">Request Handling</tspan></text></g></g></g><g id="g-root-cu_147di5hygeccs-fill" data-item-order="0" data-item-id="cu_147di5hygeccs" data-item-class="Curve Stroke ColorFillBlack ColorStrokeBlack" data-item-index="none" data-renderer-id="0" transform="translate(188, 57)"></g><g id="g-root-cu_v3mbs5ygfqq7-fill" data-item-order="0" data-item-id="cu_v3mbs5ygfqq7" data-item-class="Curve Stroke ColorFillBlack ColorStrokeBlack" data-item-index="none" data-renderer-id="0" transform="translate(188, 57)"></g><g id="g-root-1_4l2mn9ygeakp-fill" data-item-order="0" data-item-id="1_4l2mn9ygeakp" data-item-class="Icon Stroke" data-item-index="none" data-renderer-id="0" transform="translate(188, 15)"></g><g id="g-root-cu_1lrsap1ygfpqk-fill" data-item-order="0" data-item-id="cu_1lrsap1ygfpqk" data-item-class="Curve Stroke ColorFillBlack ColorStrokeBlack" data-item-index="none" data-renderer-id="0" transform="translate(518, 57)"></g><g id="g-root-tx_business_1uqjodhygcxs9-fill" data-item-order="0" data-item-id="tx_business_1uqjodhygcxs9" data-item-class="Label Stroke" data-item-index="none" data-renderer-id="0" transform="translate(542, 69)"><g id="tx_business_1uqjodhygcxs9-fill" stroke="none" fill="#A3A3A3"><g><text style="font: 20px Roboto, sans-serif; white-space: pre;"><tspan x="14.72" y="34" dominant-baseline="ideographic">Business Logic</tspan></text></g></g></g><g id="g-root-tx_endpoint_hwj50lygcvls-fill" data-item-order="0" data-item-id="tx_endpoint_hwj50lygcvls" data-item-class="Label Stroke" data-item-index="none" data-renderer-id="0" transform="translate(2, 105)"><g id="tx_endpoint_hwj50lygcvls-fill" stroke="none" fill="#A3A3A3"><g><text style="font: 20px Roboto, sans-serif; white-space: pre;"><tspan x="15.91" y="34" dominant-baseline="ideographic">Endpoint Definition</tspan></text></g></g></g><g id="g-root-tx_modulars_1um6crpyga3nu-fill" data-item-order="0" data-item-id="tx_modulars_1um6crpyga3nu" data-item-class="Label Stroke" data-item-index="none" data-renderer-id="0" transform="translate(302, 93)"><g id="tx_modulars_1um6crpyga3nu-fill" stroke="none" fill="#A3A3A3"><g><text style="font: 20px Roboto, sans-serif; white-space: pre;"><tspan x="30.68" y="34" dominant-baseline="ideographic">Modular </tspan><tspan x="15.17" y="58" dominant-baseline="ideographic">Structure of </tspan><tspan x="24.82" y="82" dominant-baseline="ideographic">a FastAPI </tspan><tspan x="36.03" y="106" dominant-baseline="ideographic">Project</tspan></text></g></g></g><g id="g-root-tx_dataproc_qtf3fpygcw7e-fill" data-item-order="0" data-item-id="tx_dataproc_qtf3fpygcw7e" data-item-class="Label Stroke" data-item-index="none" data-renderer-id="0" transform="translate(542, 105)"><g id="tx_dataproc_qtf3fpygcw7e-fill" stroke="none" fill="#A3A3A3"><g><text style="font: 20px Roboto, sans-serif; white-space: pre;"><tspan x="15.12" y="34" dominant-baseline="ideographic">Data Processing</tspan></text></g></g></g><g id="g-root-cu_1qeh0rpyge9z5-fill" data-item-order="0" data-item-id="cu_1qeh0rpyge9z5" data-item-class="Curve Stroke ColorFillBlack ColorStrokeBlack" data-item-index="none" data-renderer-id="0" transform="translate(362, 213)"></g><g id="g-root-tx_database_18ly23pygcw0c-fill" data-item-order="0" data-item-id="tx_database_18ly23pygcw0c" data-item-class="Label Stroke" data-item-index="none" data-renderer-id="0" transform="translate(320, 351)"><g id="tx_database_18ly23pygcw0c-fill" stroke="none" fill="#A3A3A3"><g><text style="font: 20px Roboto, sans-serif; white-space: pre;"><tspan x="12.83" y="34" dominant-baseline="ideographic">Database Operations</tspan></text></g></g></g><g id="g-root-data_hunpr9ygcwlh-fill" data-item-order="0" data-item-id="data_hunpr9ygcwlh" data-item-class="Icon Stroke" data-item-index="none" data-renderer-id="0" transform="translate(284, 261)"></g><g id="g-root-tx_reposito_1cwrrj9ygcvt8-fill" data-item-order="0" data-item-id="tx_reposito_1cwrrj9ygcvt8" data-item-class="Label Stroke" data-item-index="none" data-renderer-id="0" transform="translate(320, 264)"><g id="tx_reposito_1cwrrj9ygcvt8-fill" stroke="none" fill="#F99539"><g><text style="font: 20px Roboto, sans-serif; white-space: pre;"><tspan x="14.51" y="34" dominant-baseline="ideographic">Repositories</tspan></text></g></g></g><g id="g-root-cu_1414radygfoxy-fill" data-item-order="0" data-item-id="cu_1414radygfoxy" data-item-class="Curve Stroke ColorFillBlack ColorStrokeBlack" data-item-index="none" data-renderer-id="0" transform="translate(296, 303)"></g><g id="g-root-cu_mah7vpygfo5d-fill" data-item-order="0" data-item-id="cu_mah7vpygfo5d" data-item-class="Curve Stroke ColorFillBlack ColorStrokeBlack" data-item-index="none" data-renderer-id="0" transform="translate(296, 303)"></g><g id="g-root-tx_dataacce_1usf3mtygcwsj-fill" data-item-order="0" data-item-id="tx_dataacce_1usf3mtygcwsj" data-item-class="Label Stroke" data-item-index="none" data-renderer-id="0" transform="translate(320, 315)"><g id="tx_dataacce_1usf3mtygcwsj-fill" stroke="none" fill="#A3A3A3"><g><text style="font: 20px Roboto, sans-serif; white-space: pre;"><tspan x="14.22" y="34" dominant-baseline="ideographic">Data Access</tspan></text></g></g></g><g id="g-root-tx_routes_qrjo6dygebcw-fill" data-item-order="0" data-item-id="tx_routes_qrjo6dygebcw" data-item-class="Label Stroke" data-item-index="none" data-renderer-id="0" transform="translate(110, 18)"><g id="tx_routes_qrjo6dygebcw-fill" stroke="none" fill="#4F92FF"><g><text style="font: 20px Roboto, sans-serif; white-space: pre;"><tspan x="14.91" y="34" dominant-baseline="ideographic">Routes</tspan></text></g></g></g><g id="g-root-cu_m8lsmdygfp4x-fill" data-item-order="0" data-item-id="cu_m8lsmdygfp4x" data-item-class="Curve Stroke ColorFillBlack ColorStrokeBlack" data-item-index="none" data-renderer-id="0" transform="translate(518, 57)"></g><g id="g-root-ro_1lua71hyga2h0-stroke" data-item-order="-33264" data-item-id="ro_1lua71hyga2h0" data-item-class="Shape Stroke Fill" data-item-index="none" data-renderer-id="0" transform="translate(278, 15)"><g id="ro_1lua71hyga2h0-stroke" fill="none" stroke-linecap="round" stroke-linejoin="round" stroke-miterlimit="4" stroke="#A3A3A3" stroke-width="2"><g><path d="M 34 10L 154 10C 154 10 178 10 178 34L 178 184C 178 184 178 208 154 208L 34 208C 34 208 10 208 10 184L 10 34C 10 34 10 10 34 10"></path></g></g></g><g id="g-root-ro_1q9h82tygcwee-stroke" data-item-order="-9720" data-item-id="ro_1q9h82tygcwee" data-item-class="Shape Stroke Fill" data-item-index="none" data-renderer-id="0" transform="translate(272, 249)"><g id="ro_1q9h82tygcwee-stroke" fill="none" stroke-linecap="round" stroke-linejoin="round" stroke-miterlimit="4" stroke="#F99539" stroke-width="2"><g><path d="M 22 10L 178 10C 178 10 190 10 190 22L 190 52C 190 52 190 64 178 64L 22 64C 22 64 10 64 10 52L 10 22C 10 22 10 10 22 10"></path></g></g></g><g id="g-root-ro_1d1rk85ygbhu0-stroke" data-item-order="-7776" data-item-id="ro_1d1rk85ygbhu0" data-item-class="Shape Stroke Fill" data-item-index="none" data-renderer-id="0" transform="translate(494, 3)"><g id="ro_1d1rk85ygbhu0-stroke" fill="none" stroke-linecap="round" stroke-linejoin="round" stroke-miterlimit="4" stroke="#44E095" stroke-width="2"><g><path d="M 22 10L 142 10C 142 10 154 10 154 22L 154 52C 154 52 154 64 142 64L 22 64C 22 64 10 64 10 52L 10 22C 10 22 10 10 22 10"></path></g></g></g><g id="g-root-ro_1lvj57pyge9ky-stroke" data-item-order="-7128" data-item-id="ro_1lvj57pyge9ky" data-item-class="Shape Stroke Fill" data-item-index="none" data-renderer-id="0" transform="translate(98, 3)"><g id="ro_1lvj57pyge9ky-stroke" fill="none" stroke-linecap="round" stroke-linejoin="round" stroke-miterlimit="4" stroke="#4F92FF" stroke-width="2"><g><path d="M 22 10L 130 10C 130 10 142 10 142 22L 142 52C 142 52 142 64 130 64L 22 64C 22 64 10 64 10 52L 10 22C 10 22 10 10 22 10"></path></g></g></g><g id="g-root-lock_1usf3mtygbimn-stroke" data-item-order="0" data-item-id="lock_1usf3mtygbimn" data-item-class="Icon Stroke" data-item-index="none" data-renderer-id="0" transform="translate(506, 15)"><g id="lock_1usf3mtygbimn-stroke" fill="none" stroke-linecap="round" stroke-linejoin="round" stroke-miterlimit="4" stroke="#44E095" stroke-width="2"><g><path d="M 25.953749 32.184998L 13.36125 32.184998C 11.918693 32.18362 10.749999 31.013809 10.75 29.571251L 10.75 13.23875C 10.749999 11.796191 11.918693 10.62638 13.36125 10.625L 32.96125 10.625C 34.404297 10.62569 35.573753 11.795704 35.573753 13.23875L 35.57375 21.158751M 10.7475 15.72875L 35.57375 15.72875M 10.7475 26.5725L 25.953749 26.5725M 10.7475 21.158751L 35.57375 21.158751M 20.887501 15.72875L 20.887501 32.184998M 28.157499 15.72875L 28.157499 24.50375M 28.545 31.940001C 28.545 30.913441 29.37719 30.081251 30.403749 30.081251L 37.393753 30.081251C 38.419334 30.082628 39.25 30.914417 39.25 31.940001L 39.25 37.516251C 39.25 38.541836 38.419334 39.373619 37.393749 39.375L 30.403749 39.375C 29.37719 39.375 28.545 38.542809 28.545 37.516251ZM 33.89875 24.5L 33.89875 24.5C 31.886976 24.541687 30.289545 26.2057 30.33 28.217499L 30.33 30.077499L 37.467503 30.077499L 37.467503 28.221249C 37.510056 26.207998 35.912018 24.541676 33.89875 24.5ZM 33.89875 33.42625C 33.349682 33.403801 32.842079 33.717323 32.616337 34.218346C 32.390594 34.719368 32.492027 35.307301 32.872601 35.703716C 33.253178 36.100132 33.836487 36.225449 34.346291 36.020313C 34.856102 35.815178 35.190052 35.320782 35.190002 34.771252C 35.204643 34.043343 34.626644 33.441284 33.89875 33.42625L 33.89875 33.42625"></path></g></g></g><g id="g-root-cu_hxs36tygeb5v-stroke" data-item-order="0" data-item-id="cu_hxs36tygeb5v" data-item-class="Curve Stroke ColorFillBlack ColorStrokeBlack" data-item-index="none" data-renderer-id="0" transform="translate(230, 30)"><g id="cu_hxs36tygeb5v-stroke" fill="none" stroke-linecap="round" stroke-linejoin="round" stroke-miterlimit="4" stroke="#666666" stroke-width="2" stroke-dasharray="5.0, 7.0"><g><path d="M 58 61L 55 61L 54.9 61C 43.357252 61.000001 34.000002 51.642752 34.000002 40.1L 34 40L 34 30.9C 33.999998 19.357248 24.64275 10 13.1 10L 13 10L 10 10"></path></g></g></g><g id="g-root-cu_meujhhygecjq-stroke" data-item-order="0" data-item-id="cu_meujhhygecjq" data-item-class="Curve Stroke ColorFillBlack ColorStrokeBlack" data-item-index="none" data-renderer-id="0" transform="translate(446, 30)"><g id="cu_meujhhygecjq-stroke" fill="none" stroke-linecap="round" stroke-linejoin="round" stroke-miterlimit="4" stroke="#666666" stroke-width="2" stroke-dasharray="5.0, 7.0"><g><path d="M 10 61L 13 61L 13.1 61C 24.642753 60.999998 34.000001 51.642749 34.000001 40.099998L 34 40L 34 30.9C 33.999999 19.357249 43.357248 10.000001 54.899999 10.000002L 55 10L 58 10"></path></g></g></g><g id="g-root-tx_services_92rk11ygbh8u-stroke" data-item-order="0" data-item-id="tx_services_92rk11ygbh8u" data-item-class="Label Stroke" data-item-index="none" data-renderer-id="0" transform="translate(542, 18)"></g><g id="g-root-1_dfgopxyga2o3-stroke" data-item-order="0" data-item-id="1_dfgopxyga2o3" data-item-class="Icon Stroke" data-item-index="none" data-renderer-id="0" transform="translate(338, 39)"><g id="1_dfgopxyga2o3-stroke" fill="none" stroke-linecap="round" stroke-linejoin="round" stroke-miterlimit="4" stroke="#A3A3A3" stroke-width="2"><g><path d="M 43.931999 19.574001C 44.595074 19.971897 45.000557 20.688705 45 21.462002L 45 30.74L 34 37.816002L 23 30.74L 23 21.462C 22.999445 20.688705 23.404926 19.971897 24.068001 19.574001L 32.868 14.294001C 33.564758 13.875892 34.435246 13.875892 35.132004 14.294001ZM 34 26.816L 34 37.816002M 45 44.416L 34 37.816002L 45 30.74L 55 37.166C 55.625572 37.573112 56.002068 38.26963 56.000004 39.015999L 56 47.139999C 56.002068 47.886375 55.625572 48.58289 55.000004 48.990002L 46.200001 54.650002C 45.475147 55.116165 44.544857 55.116165 43.820004 54.650002L 34 48.34L 34 37.816002M 45 44.416L 45 55M 34 37.816002L 34 48.34L 24.200001 54.650002C 23.475147 55.116165 22.544855 55.116165 21.82 54.650002L 13.02 48.990002C 12.386795 48.587597 12.002312 47.890251 12 47.140003L 12 39.015999C 11.997935 38.26963 12.374431 37.573112 13 37.166L 23 30.74L 34 37.816002L 23 44.416M 23 44.416L 12.262 37.973999M 23 44.416L 23 55M 34 26.816L 23.282 20.383999M 44.717999 20.383999L 34 26.816M 55.737999 37.973999L 45 44.416"></path></g></g></g><g id="g-root-tx_requesth_1cy0pphygcxzb-stroke" data-item-order="0" data-item-id="tx_requesth_1cy0pphygcxzb" data-item-class="Label Stroke" data-item-index="none" data-renderer-id="0" transform="translate(14, 69)"></g><g id="g-root-cu_147di5hygeccs-stroke" data-item-order="0" data-item-id="cu_147di5hygeccs" data-item-class="Curve Stroke ColorFillBlack ColorStrokeBlack" data-item-index="none" data-renderer-id="0" transform="translate(188, 57)"><g id="cu_147di5hygeccs-stroke" fill="none" stroke-linecap="round" stroke-linejoin="round" stroke-miterlimit="4" stroke="#666666" stroke-width="2" stroke-dasharray="5.0, 7.0"><g><path d="M 28 10L 28 22L 28 34L 19 34L 10 34"></path></g></g></g><g id="g-root-cu_v3mbs5ygfqq7-stroke" data-item-order="0" data-item-id="cu_v3mbs5ygfqq7" data-item-class="Curve Stroke ColorFillBlack ColorStrokeBlack" data-item-index="none" data-renderer-id="0" transform="translate(188, 57)"><g id="cu_v3mbs5ygfqq7-stroke" fill="none" stroke-linecap="round" stroke-linejoin="round" stroke-miterlimit="4" stroke="#666666" stroke-width="2" stroke-dasharray="5.0, 7.0"><g><path d="M 28 10L 28 17.5L 28 58C 27.999999 64.627415 22.627416 69.999998 16 69.999998L 15.9 70L 10 70"></path></g></g></g><g id="g-root-1_4l2mn9ygeakp-stroke" data-item-order="0" data-item-id="1_4l2mn9ygeakp" data-item-class="Icon Stroke" data-item-index="none" data-renderer-id="0" transform="translate(188, 15)"><g id="1_4l2mn9ygeakp-stroke" fill="none" stroke-linecap="round" stroke-linejoin="round" stroke-miterlimit="4" stroke="#4F92FF" stroke-width="2"><g><path d="M 13.214286 12.142857L 36.785713 12.142857C 36.785713 12.142857 38.92857 12.142857 38.92857 14.285714L 38.92857 22.857143C 38.92857 22.857143 38.92857 25 36.785713 25L 13.214286 25C 13.214286 25 11.071428 25 11.071428 22.857143L 11.071428 14.285714C 11.071428 14.285714 11.071428 12.142857 13.214286 12.142857M 16.428572 18.571428C 16.428572 19.163162 16.908266 19.642857 17.5 19.642857C 18.091734 19.642857 18.571428 19.163162 18.571428 18.571428C 18.571428 17.979694 18.091734 17.5 17.5 17.5C 16.908266 17.5 16.428572 17.979694 16.428572 18.571428M 26.071428 18.571428L 33.571426 18.571428M 13.214286 25C 12.030818 25 11.071428 25.959389 11.071428 27.142857L 11.071428 35.714287C 11.071428 36.897755 12.030818 37.857143 13.214286 37.857143L 36.785713 37.857143C 37.969181 37.857143 38.92857 36.897755 38.92857 35.714287L 38.92857 27.142857C 38.92857 25.959389 37.969181 25 36.785713 25M 16.428572 31.42857C 16.428572 32.020306 16.908266 32.5 17.5 32.5C 18.091734 32.5 18.571428 32.020306 18.571428 31.42857C 18.571428 30.836838 18.091734 30.357141 17.5 30.357141C 16.908266 30.357141 16.428572 30.836838 16.428572 31.42857M 26.071428 31.42857L 33.571426 31.42857"></path></g></g></g><g id="g-root-cu_1lrsap1ygfpqk-stroke" data-item-order="0" data-item-id="cu_1lrsap1ygfpqk" data-item-class="Curve Stroke ColorFillBlack ColorStrokeBlack" data-item-index="none" data-renderer-id="0" transform="translate(518, 57)"><g id="cu_1lrsap1ygfpqk-stroke" fill="none" stroke-linecap="round" stroke-linejoin="round" stroke-miterlimit="4" stroke="#666666" stroke-width="2" stroke-dasharray="5.0, 7.0"><g><path d="M 10 10L 10 17.5L 10 58C 10.000002 64.627417 15.372585 70 22.000002 69.999999L 22.1 70L 28 70"></path></g></g></g><g id="g-root-tx_business_1uqjodhygcxs9-stroke" data-item-order="0" data-item-id="tx_business_1uqjodhygcxs9" data-item-class="Label Stroke" data-item-index="none" data-renderer-id="0" transform="translate(542, 69)"></g><g id="g-root-tx_endpoint_hwj50lygcvls-stroke" data-item-order="0" data-item-id="tx_endpoint_hwj50lygcvls" data-item-class="Label Stroke" data-item-index="none" data-renderer-id="0" transform="translate(2, 105)"></g><g id="g-root-tx_modulars_1um6crpyga3nu-stroke" data-item-order="0" data-item-id="tx_modulars_1um6crpyga3nu" data-item-class="Label Stroke" data-item-index="none" data-renderer-id="0" transform="translate(302, 93)"></g><g id="g-root-tx_dataproc_qtf3fpygcw7e-stroke" data-item-order="0" data-item-id="tx_dataproc_qtf3fpygcw7e" data-item-class="Label Stroke" data-item-index="none" data-renderer-id="0" transform="translate(542, 105)"></g><g id="g-root-cu_1qeh0rpyge9z5-stroke" data-item-order="0" data-item-id="cu_1qeh0rpyge9z5" data-item-class="Curve Stroke ColorFillBlack ColorStrokeBlack" data-item-index="none" data-renderer-id="0" transform="translate(362, 213)"><g id="cu_1qeh0rpyge9z5-stroke" fill="none" stroke-linecap="round" stroke-linejoin="round" stroke-miterlimit="4" stroke="#666666" stroke-width="2" stroke-dasharray="5.0, 7.0"><g><path d="M 10 10L 10 28L 10 46"></path></g></g></g><g id="g-root-tx_database_18ly23pygcw0c-stroke" data-item-order="0" data-item-id="tx_database_18ly23pygcw0c" data-item-class="Label Stroke" data-item-index="none" data-renderer-id="0" transform="translate(320, 351)"></g><g id="g-root-data_hunpr9ygcwlh-stroke" data-item-order="0" data-item-id="data_hunpr9ygcwlh" data-item-class="Icon Stroke" data-item-index="none" data-renderer-id="0" transform="translate(284, 261)"><g id="data_hunpr9ygcwlh-stroke" fill="none" stroke-linecap="round" stroke-linejoin="round" stroke-miterlimit="4" stroke="#F99539" stroke-width="2"><g><path d="M 11.071428 16.428572C 11.071429 19.387239 17.307463 21.785713 25 21.785713C 32.692539 21.785713 38.92857 19.387239 38.92857 16.428572C 38.92857 13.469903 32.692539 11.071428 25 11.071428C 17.307463 11.071428 11.071429 13.469903 11.071429 16.428572M 11.071428 16.428572L 11.071428 33.571426C 11.071428 36.528572 17.307142 38.92857 25 38.92857C 32.692856 38.92857 38.92857 36.528572 38.92857 33.571426L 38.92857 16.428572M 38.92857 25C 38.92857 27.957142 32.692856 30.357141 25 30.357141C 17.307142 30.357141 11.071428 27.957142 11.071428 25"></path></g></g></g><g id="g-root-tx_reposito_1cwrrj9ygcvt8-stroke" data-item-order="0" data-item-id="tx_reposito_1cwrrj9ygcvt8" data-item-class="Label Stroke" data-item-index="none" data-renderer-id="0" transform="translate(320, 264)"></g><g id="g-root-cu_1414radygfoxy-stroke" data-item-order="0" data-item-id="cu_1414radygfoxy" data-item-class="Curve Stroke ColorFillBlack ColorStrokeBlack" data-item-index="none" data-renderer-id="0" transform="translate(296, 303)"><g id="cu_1414radygfoxy-stroke" fill="none" stroke-linecap="round" stroke-linejoin="round" stroke-miterlimit="4" stroke="#666666" stroke-width="2" stroke-dasharray="5.0, 7.0"><g><path d="M 10 10L 10 22L 10 34L 19 34L 28 34"></path></g></g></g><g id="g-root-cu_mah7vpygfo5d-stroke" data-item-order="0" data-item-id="cu_mah7vpygfo5d" data-item-class="Curve Stroke ColorFillBlack ColorStrokeBlack" data-item-index="none" data-renderer-id="0" transform="translate(296, 303)"><g id="cu_mah7vpygfo5d-stroke" fill="none" stroke-linecap="round" stroke-linejoin="round" stroke-miterlimit="4" stroke="#666666" stroke-width="2" stroke-dasharray="5.0, 7.0"><g><path d="M 10 10L 10 17.5L 10 58C 10.000002 64.627417 15.372585 70 22.000002 69.999999L 22.1 70L 28 70"></path></g></g></g><g id="g-root-tx_dataacce_1usf3mtygcwsj-stroke" data-item-order="0" data-item-id="tx_dataacce_1usf3mtygcwsj" data-item-class="Label Stroke" data-item-index="none" data-renderer-id="0" transform="translate(320, 315)"></g><g id="g-root-tx_routes_qrjo6dygebcw-stroke" data-item-order="0" data-item-id="tx_routes_qrjo6dygebcw" data-item-class="Label Stroke" data-item-index="none" data-renderer-id="0" transform="translate(110, 18)"></g><g id="g-root-cu_m8lsmdygfp4x-stroke" data-item-order="0" data-item-id="cu_m8lsmdygfp4x" data-item-class="Curve Stroke ColorFillBlack ColorStrokeBlack" data-item-index="none" data-renderer-id="0" transform="translate(518, 57)"><g id="cu_m8lsmdygfp4x-stroke" fill="none" stroke-linecap="round" stroke-linejoin="round" stroke-miterlimit="4" stroke="#666666" stroke-width="2" stroke-dasharray="5.0, 7.0"><g><path d="M 10 10L 10 22L 10 34L 19 34L 28 34"></path></g></g></g></g></g></svg>